<?xml version="1.0" standalone="no"?><!DOCTYPE svg PUBLIC "-//W3C//DTD SVG 1.1//EN" "http://www.w3.org/Graphics/SVG/1.1/DTD/svg11.dtd"><svg t="1714797375343" class="icon" viewBox="0 0 1024 1024" version="1.1" xmlns="http://www.w3.org/2000/svg" p-id="1657" xmlns:xlink="http://www.w3.org/1999/xlink" width="200" height="200"><path d="M897.031 626.742s-26.016-96.832-73.711-155.853c0 0 26.016-48.877-17.344-116.198 0 0-10.406-290.496-293.977-290.496S218.023 354.69 218.023 354.69c-43.359 67.321-17.344 116.198-17.344 116.198-47.695 59.021-73.711 155.853-73.711 155.853-24.281 118.043 21.68 139.254 28.617 141.098s22.547-16.6 27.75-24.9c5.203-8.3 16.477-35.044 19.078-36.888s6.938 13.833 6.938 13.833c18.211 59.944 57.234 103.288 57.234 103.288-39.023 14.755-65.906 43.344-65.906 43.344s-49.43 75.621 82.383 90.377 218.531-31.355 218.531-31.355h20.813s86.719 46.111 218.531 31.355 82.383-90.377 82.383-90.377-26.883-28.589-65.906-43.344c0 0 39.023-43.344 57.234-103.288 0 0 4.336-15.678 6.938-13.833s13.875 28.589 19.078 36.888c5.203 8.3 20.813 26.744 27.75 24.9s52.898-23.054 28.617-141.097z" p-id="1658"></path></svg>